<?xml version="1.0" encoding="utf-8"?>
<!-- Generator: Adobe Illustrator 16.0.0, SVG Export Plug-In . SVG Version: 6.00 Build 0)  -->
<!DOCTYPE svg PUBLIC "-//W3C//DTD SVG 1.1//EN" "http://www.w3.org/Graphics/SVG/1.1/DTD/svg11.dtd">
<svg version="1.1" id="Calque_1" xmlns="http://www.w3.org/2000/svg" xmlns:xlink="http://www.w3.org/1999/xlink" x="0px" y="0px"
	 width="100px" height="100px" viewBox="0 0 100 100" enable-background="new 0 0 100 100" xml:space="preserve">
<rect x="-14.173" y="-14.143" fill="#9B9C9E" width="128.347" height="128.98"/>
<g>
	<path fill="#D8D9DA" d="M42.117,24.045c-2.983,4.84-11.664,19.287-15.916,30.247c0,0-4.099,6.335-16.98,7.838
		c-1.039,0.122-1.862,0.953-1.954,1.994c-0.009,0.11-0.017,0.224-0.022,0.344c-0.168,3.637,2.279,6.861,5.768,7.898
		c2.004,0.597,4.686,1.008,8.203,0.871c0,0,24.415-1.516,32.681-8.971c0.392-0.353,0.621-0.85,0.621-1.378v-1.618
		c0,0,6.182-3.19,6.78-3.19c0.34,0,1.006,0.712,1.514,1.326c0.443,0.533,1.141,0.78,1.817,0.626
		c4.194-0.957,19.007-4.928,27.7-14.91c0.431-0.492,0.546-1.184,0.325-1.799c-1.303-3.609-6.135-16.138-12.775-22.934
		c-0.865-0.885-2.039-1.446-3.275-1.419c-1.147,0.025-2.344,0.524-2.543,2.418c0,0-1.225,14.902-24.13,9.513
		c0,0,1.098-2.005-0.532-4.262c-0.957-1.324-2.944-2.561-4.422-3.355C43.968,22.742,42.717,23.07,42.117,24.045z"/>
	<g>
		<path fill="#FFFFFF" d="M27.62,50.868l3.217,0.922l-2.583-2.342C28.036,49.925,27.825,50.398,27.62,50.868z"/>
		<path fill="#FFFFFF" d="M29.657,46.456l4.162,1.377l-3.429-2.872C30.143,45.46,29.898,45.958,29.657,46.456z"/>
		<path fill="#FFFFFF" d="M31.853,42.077l4.671,1.644l-3.889-3.14C32.374,41.078,32.112,41.576,31.853,42.077z"/>
		<path fill="#FFFFFF" d="M34.97,36.268c-0.27,0.487-0.542,0.98-0.813,1.48l5.053,1.855L34.97,36.268z"/>
	</g>
	<path fill="#FFFFFF" d="M86.417,29.545c-8.999,3.679-17.368,9.404-25.256,14.978C46.5,54.886,25.914,69.657,8.692,62.267
		c-0.518,0.196-0.943,0.575-1.191,1.062c17.427,5.964,40.604-3.41,54.439-12.996c9.339-6.471,17.764-12.127,27.325-15.202
		C88.436,33.343,87.481,31.439,86.417,29.545z"/>
</g>
</svg>
