<?xml version="1.0" encoding="utf-8"?>
<!-- Generator: Adobe Illustrator 16.0.0, SVG Export Plug-In . SVG Version: 6.00 Build 0)  -->
<!DOCTYPE svg PUBLIC "-//W3C//DTD SVG 1.1//EN" "http://www.w3.org/Graphics/SVG/1.1/DTD/svg11.dtd">
<svg version="1.1" id="Calque_1" xmlns="http://www.w3.org/2000/svg" xmlns:xlink="http://www.w3.org/1999/xlink" x="0px" y="0px"
	 width="100px" height="100px" viewBox="0 0 100 100" enable-background="new 0 0 100 100" xml:space="preserve">
<rect x="-14.173" y="-14.143" fill="#9B9C9E" width="128.347" height="128.98"/>
<g>
	<path fill="#FFFFFF" d="M9.979,61.269V39.487h2.74v19.405h7.826v2.377H9.979z"/>
	<path fill="#FFFFFF" d="M40.532,42.484c2.195,2.2,3.292,4.818,3.292,7.855c0,3.058-1.097,5.683-3.292,7.878
		c-2.194,2.195-4.876,3.293-8.045,3.293c-3.159,0-5.835-1.098-8.03-3.293c-2.194-2.195-3.292-4.82-3.292-7.878
		c0-3.037,1.098-5.655,3.292-7.855c2.195-2.2,4.872-3.3,8.03-3.3C35.656,39.184,38.338,40.284,40.532,42.484z M32.487,41.576
		c-2.321,0-4.329,0.85-6.024,2.55c-1.695,1.701-2.543,3.772-2.543,6.214c0,2.462,0.848,4.541,2.543,6.236s3.703,2.543,6.024,2.543
		c2.331,0,4.344-0.848,6.04-2.543s2.543-3.773,2.543-6.236c0-2.441-0.848-4.513-2.543-6.214
		C36.832,42.425,34.818,41.576,32.487,41.576z"/>
	<path fill="#FFFFFF" d="M64.971,58.302c-2.229,2.139-4.822,3.209-7.779,3.209c-3.168,0-5.846-1.092-8.031-3.277
		s-3.277-4.807-3.277-7.864c0-3.027,1.092-5.641,3.277-7.841c2.185-2.199,4.863-3.3,8.031-3.3c2.947,0,5.646,1.12,8.098,3.36
		l-1.906,1.695c-1.998-1.766-4.063-2.648-6.191-2.648c-2.32,0-4.326,0.845-6.018,2.535c-1.69,1.69-2.536,3.757-2.536,6.198
		c0,2.463,0.845,4.536,2.536,6.221c1.691,1.686,3.697,2.527,6.018,2.527c1.988,0,3.674-0.555,5.055-1.664v-6.63h2.725V58.302z"/>
	<path fill="#FFFFFF" d="M86.729,42.484c2.195,2.2,3.293,4.818,3.293,7.855c0,3.058-1.098,5.683-3.293,7.878
		c-2.193,2.195-4.875,3.293-8.045,3.293c-3.158,0-5.834-1.098-8.029-3.293s-3.293-4.82-3.293-7.878c0-3.037,1.098-5.655,3.293-7.855
		s4.871-3.3,8.029-3.3C81.854,39.184,84.535,40.284,86.729,42.484z M78.684,41.576c-2.32,0-4.328,0.85-6.023,2.55
		c-1.695,1.701-2.543,3.772-2.543,6.214c0,2.462,0.848,4.541,2.543,6.236s3.703,2.543,6.023,2.543c2.332,0,4.346-0.848,6.041-2.543
		s2.543-3.773,2.543-6.236c0-2.441-0.848-4.513-2.543-6.214C83.029,42.425,81.016,41.576,78.684,41.576z"/>
</g>
</svg>
